<?xml version="1.0" encoding="UTF-8"?>
<svg version="1.1" xmlns="http://www.w3.org/2000/svg" width="512" height="512">
<path d="M0 0 C-1.72032834 4.95335918 -4.41374924 9.23140245 -7.125 13.6875 C-7.89505371 14.96222168 -7.89505371 14.96222168 -8.68066406 16.26269531 C-15.71806798 27.88375347 -22.85999489 39.4418099 -30 51 C-29.37770508 50.96970703 -28.75541016 50.93941406 -28.11425781 50.90820312 C-14.06450008 50.23793945 -0.06545287 49.85996784 14 50 C14 53 14 53 12.54479122 54.79641914 C11.51412202 55.80345799 11.51412202 55.80345799 10.46263123 56.83084106 C9.67866974 57.60447495 8.89470825 58.37810883 8.08699036 59.17518616 C7.21580063 60.01987961 6.3446109 60.86457306 5.44702148 61.73486328 C4.05214625 63.10575371 2.65727805 64.47665135 1.2626754 65.84781909 C-0.24023757 67.32297554 -1.74662069 68.79451289 -3.25378609 70.26532364 C-6.394056 73.33170563 -9.51920453 76.41318764 -12.64134216 79.49801636 C-21.5220731 88.26910465 -30.41295537 97.02957004 -39.34155273 105.75195312 C-44.27093252 110.56773124 -49.18222812 115.40119046 -54.07402366 120.25514972 C-56.66357693 122.82309553 -59.26169698 125.38083726 -61.88250923 127.91690445 C-64.80764486 130.74752646 -67.69281474 133.61584695 -70.57641602 136.48876953 C-71.88623695 137.73759163 -71.88623695 137.73759163 -73.22251892 139.01164246 C-77.36990841 143.03816993 -77.36990841 143.03816993 -79.38843918 148.27197552 C-79.18955191 150.66042835 -78.70799952 152.71193645 -78 155 C-77.8056326 155.72184605 -77.6112652 156.44369209 -77.41100788 157.18741226 C-76.74676762 159.50257366 -75.99431257 161.77200313 -75.21533203 164.05102539 C-74.93049454 164.90802032 -74.64565704 165.76501526 -74.35218811 166.64797974 C-73.41265466 169.46749406 -72.46037607 172.28252015 -71.5078125 175.09765625 C-70.83981591 177.09296498 -70.17258412 179.0885299 -69.506073 181.08433533 C-67.74613042 186.34695668 -65.9751896 191.60581406 -64.2020874 196.86401367 C-62.78829385 201.06237245 -61.38199949 205.26322215 -59.97623062 209.46427345 C-51.86365237 233.74668442 -51.86365237 233.74668442 -43.53808594 257.95654297 C-43.27409185 258.71436664 -43.01009777 259.4721903 -42.73810387 260.25297832 C-41.53225661 263.71335454 -40.31938895 267.17084924 -39.09036255 270.62306213 C-38.67753021 271.80246872 -38.26469788 272.98187531 -37.83935547 274.19702148 C-37.48114716 275.20635239 -37.12293884 276.21568329 -36.75387573 277.25559998 C-36.0063074 279.97703863 -35.84908766 282.19426032 -36 285 C-36.66 285.33 -37.32 285.66 -38 286 C-39.80566406 285.21826172 -39.80566406 285.21826172 -42.015625 283.9296875 C-42.84328369 283.45208984 -43.67094238 282.97449219 -44.52368164 282.48242188 C-45.4233667 281.95197266 -46.32305176 281.42152344 -47.25 280.875 C-48.18513428 280.33166016 -49.12026855 279.78832031 -50.08374023 279.22851562 C-53.06117146 277.49463922 -56.03116412 275.74854665 -59 274 C-59.93150879 273.45375977 -60.86301758 272.90751953 -61.82275391 272.34472656 C-68.2296753 268.58742033 -74.61917833 264.80143652 -81 261 C-81.95583984 260.43087891 -82.91167969 259.86175781 -83.89648438 259.27539062 C-86.70326604 257.60266216 -89.50832471 255.92709357 -92.3125 254.25 C-93.17302979 253.73630859 -94.03355957 253.22261719 -94.92016602 252.69335938 C-95.70576904 252.22220703 -96.49137207 251.75105469 -97.30078125 251.265625 C-97.99341064 250.85086914 -98.68604004 250.43611328 -99.3996582 250.00878906 C-101 249 -101 249 -102 248 C-101.95319748 242.41879943 -100.83915293 237.02843005 -99.453125 231.64453125 C-99.18145508 230.58210205 -98.90978516 229.51967285 -98.62988281 228.42504883 C-98.31809082 227.22464966 -98.31809082 227.22464966 -98 226 C-119.72207019 218.54135305 -141.46358788 211.14379357 -163.25 203.875 C-164.19813568 203.55812225 -165.14627136 203.24124451 -166.12313843 202.9147644 C-167.97112829 202.29742943 -169.81962621 201.68161292 -171.66867065 201.06744385 C-173.41868806 200.48326798 -175.16636305 199.89201942 -176.91140747 199.29315186 C-180.57146689 198.05090682 -184.12858441 196.90801312 -187.93823242 196.23168945 C-193.2348224 195.16905661 -196.03249789 194.44489243 -199.11669922 189.83886719 C-201.07787134 185.83798047 -202.44488725 181.66918849 -203.8125 177.4375 C-204.32680551 175.98600115 -204.84565288 174.5361032 -205.36914062 173.08789062 C-209 162.85805027 -209 162.85805027 -209 159 C-220.88 160.98 -232.76 162.96 -245 165 C-246 162 -246 162 -244.75585938 159.09594727 C-244.12903402 157.91378203 -243.49080386 156.73762185 -242.84375 155.56640625 C-242.33382507 154.61664162 -242.33382507 154.61664162 -241.81359863 153.64768982 C-240.71842316 151.61407549 -239.6092371 149.58847194 -238.5 147.5625 C-237.42759764 145.57390565 -236.35782184 143.58392402 -235.28909302 141.59335327 C-234.57435116 140.28155651 -233.84626591 138.97694425 -233.10519409 137.67984009 C-231.3371236 134.57899585 -229.90250904 131.72966607 -228.68408203 128.35107422 C-227.18058692 124.60087589 -226.16438553 122.54245441 -223 120 C-216.81326072 118.57251948 -210.2538711 119.39521742 -203.98001099 119.81582642 C-189.02330135 121.02561099 -189.02330135 121.02561099 -174.84912109 117.39697266 C-170.30279188 113.08944864 -168.22605339 107.70336766 -166.15234375 101.89208984 C-164.15421274 96.87728901 -161.05949574 92.58863625 -158.0625 88.125 C-156.88132324 86.27687481 -155.70554715 84.425287 -154.53515625 82.5703125 C-150.45104303 76.13357872 -146.35753037 69.70284398 -142.26342773 63.27246094 C-139.26804559 58.56693288 -136.27586438 53.85941732 -133.2890625 49.1484375 C-132.67546875 48.18164062 -132.061875 47.21484375 -131.4296875 46.21875 C-130.2749347 44.39913953 -129.12119159 42.57888765 -127.96875 40.7578125 C-126.91567117 39.09934052 -125.84376853 37.45262488 -124.75067139 35.82025146 C-122.94023301 33.05147612 -122.94023301 33.05147612 -121.70684814 30.05865479 C-118.90563523 24.46083381 -116.41975888 21.19512558 -110.48483276 19.18508911 C-104.62991396 17.58547124 -98.66970003 16.5637174 -92.6953125 15.5234375 C-90.4878323 15.101374 -88.28120345 14.67483555 -86.07540894 14.24404907 C-80.28374281 13.12527228 -74.48262288 12.06699204 -68.67736816 11.0213623 C-62.78976648 9.9500984 -56.91301841 8.82247561 -51.03515625 7.69921875 C-41.53079555 5.88948533 -32.02095708 4.11322305 -22.50146484 2.38476562 C-21.65786407 2.23107513 -20.81426331 2.07738464 -19.94509888 1.91903687 C-19.13083561 1.7720573 -18.31657234 1.62507774 -17.47763443 1.47364426 C-15.75340788 1.14402743 -14.03460676 0.78525051 -12.32104111 0.40407181 C-11.44809528 0.21148159 -10.57514946 0.01889137 -9.67575073 -0.17953491 C-8.89756422 -0.35986456 -8.11937771 -0.54019421 -7.31760979 -0.72598839 C-4.66318379 -1.03982187 -2.58003062 -0.64423365 0 0 Z M-15.27740479 4.75927734 C-16.12431885 4.92756042 -16.97123291 5.09584351 -17.84381104 5.26922607 C-18.76450378 5.45624084 -19.68519653 5.64325562 -20.63378906 5.8359375 C-22.09770081 6.12854462 -22.09770081 6.12854462 -23.59118652 6.42706299 C-26.81674205 7.07273141 -30.04117352 7.72384242 -33.265625 8.375 C-35.50186554 8.82374015 -37.73817426 9.27214069 -39.97454834 9.72021484 C-45.86067159 10.9004941 -51.74585621 12.08539057 -57.63085938 13.27124023 C-63.63616031 14.48048358 -69.64233454 15.68537273 -75.6484375 16.890625 C-87.43315207 19.25614802 -99.21687994 21.62654814 -111 24 C-110.40618639 30.57265559 -109.23646845 36.72524752 -107.59155273 43.10961914 C-107.34756744 44.07653687 -107.10358215 45.04345459 -106.85220337 46.03967285 C-106.05166946 49.20630149 -105.24270428 52.37070925 -104.43359375 55.53515625 C-103.87399334 57.7417649 -103.31492426 59.94850835 -102.75636292 62.15538025 C-101.29030029 67.9418157 -99.81705862 73.72639958 -98.34228516 79.51062012 C-96.83645762 85.42198869 -95.33746724 91.33509012 -93.83789062 97.24804688 C-90.89859432 108.83373182 -87.95170648 120.4174711 -85 132 C-82.19977669 128.54828279 -79.74284795 125.11312615 -77.453125 121.30078125 C-76.78128174 120.18727295 -76.10943848 119.07376465 -75.41723633 117.92651367 C-75.06448639 117.33824799 -74.71173645 116.7499823 -74.34829712 116.14389038 C-72.45688688 112.98999836 -70.55364703 109.84324667 -68.65234375 106.6953125 C-68.26370651 106.05109848 -67.87506927 105.40688446 -67.47465515 104.7431488 C-63.62570163 98.3674678 -59.7236981 92.02519618 -55.8125 85.6875 C-50.84996639 77.64003364 -45.90859882 69.58048065 -41 61.5 C-35.96498436 53.21212203 -30.89811332 44.94442502 -25.8125 36.6875 C-25.14347656 35.60017578 -24.47445312 34.51285156 -23.78515625 33.39257812 C-20.71209177 28.39884834 -17.63439881 23.40816447 -14.54296875 18.42578125 C-13.5285865 16.78389082 -12.51425955 15.14196623 -11.5 13.5 C-10.80547729 12.38757935 -10.80547729 12.38757935 -10.09692383 11.25268555 C-7.79709735 7.87743116 -7.79709735 7.87743116 -7 4 C-10.06123912 4 -12.34242787 4.16933223 -15.27740479 4.75927734 Z M-116 29 C-117.65093697 31.49039645 -119.18109686 33.9856442 -120.6875 36.5625 C-125.12174209 43.99285162 -129.74070793 51.273777 -134.5 58.5 C-139.49988052 66.10829512 -144.36514777 73.77394979 -149.07373047 81.56542969 C-152.17374774 86.68317546 -155.36641265 91.7318208 -158.625 96.75 C-159.07552734 97.44689941 -159.52605469 98.14379883 -159.99023438 98.86181641 C-162.19845626 102.2678945 -164.4349869 105.64937612 -166.7265625 109 C-167.36537354 109.94987793 -167.36537354 109.94987793 -168.01708984 110.91894531 C-168.81490816 112.103824 -169.62445565 113.28092408 -170.44775391 114.44824219 C-172.08970335 116.9062863 -172.99934457 118.57069617 -173.00390625 121.55859375 C-171.70892855 124.70785858 -169.94850326 126.76301147 -167.6875 129.3125 C-163.637862 133.98057736 -159.85452414 138.7761334 -156.1875 143.75 C-152.09184715 149.28379075 -147.87352386 154.68319263 -143.5 160 C-138.66515382 165.87965551 -134.04807158 171.88228853 -129.51953125 178 C-125.45934521 183.45620801 -121.19718838 188.72365577 -116.87524414 193.97363281 C-112.39312447 199.44585481 -108.13357594 205.06512576 -103.95703125 210.7734375 C-103.49554688 211.39992188 -103.0340625 212.02640625 -102.55859375 212.671875 C-102.15954834 213.2194043 -101.76050293 213.76693359 -101.34936523 214.33105469 C-99.7015478 216.36913683 -97.87631132 218.17273118 -96 220 C-94.96743773 215.40474291 -93.93826436 210.80874131 -92.91162109 206.2121582 C-92.56544297 204.66412145 -92.21849485 203.1162566 -91.87060547 201.56860352 C-91.7057666 200.83504639 -91.54092773 200.10148926 -91.37109375 199.34570312 C-91.20123459 198.59369629 -91.03137543 197.84168945 -90.85636902 197.06689453 C-90.49989117 195.45046861 -90.1573929 193.83091417 -89.82685852 192.20898438 C-88.81599418 187.31405053 -87.58080079 182.62605224 -86.01635742 177.87695312 C-79.05162561 154.88205258 -85.37603606 135.31866387 -91.7253418 112.86468506 C-93.10868734 107.92443903 -94.42190493 102.96572491 -95.74023438 98.0078125 C-97.7941066 90.31293693 -99.88479551 82.62916175 -102.00439453 74.95214844 C-104.87494259 64.54091777 -107.60540129 54.09659782 -110.27734375 43.6328125 C-110.47151949 42.87289883 -110.66569523 42.11298515 -110.86575508 41.33004379 C-111.91486248 37.22112952 -112.95967858 33.11114911 -114 29 C-114.66 29 -115.32 29 -116 29 Z M-10.25 53.4375 C-11.87228516 53.49647461 -11.87228516 53.49647461 -13.52734375 53.55664062 C-16.68648273 53.68049107 -19.84255372 53.83934074 -23 54 C-23.95124756 54.02360596 -24.90249512 54.04721191 -25.88256836 54.0715332 C-31.13297604 54.28397434 -31.13297604 54.28397434 -35.34765625 57.17578125 C-35.91355469 58.21089844 -36.47945312 59.24601562 -37.0625 60.3125 C-37.8013614 61.59546811 -38.54102103 62.87797669 -39.28125 64.16015625 C-39.69761719 64.9092627 -40.11398437 65.65836914 -40.54296875 66.43017578 C-43.23260608 71.17399658 -46.11925892 75.80106376 -48.96508789 80.45220947 C-50.81934066 83.48986327 -52.65851745 86.53662601 -54.5 89.58203125 C-60.05623962 98.76081864 -65.68536054 107.89430758 -71.31640625 117.02734375 C-72.20416748 118.48309814 -72.20416748 118.48309814 -73.10986328 119.96826172 C-74.46561008 122.14285016 -75.84541451 124.27197758 -77.27685547 126.39501953 C-77.65220932 126.96603897 -78.02756317 127.53705841 -78.41429138 128.12538147 C-79.46664597 129.72419006 -80.53735564 131.31087323 -81.60913086 132.89672852 C-83.3231704 136.7210495 -82.92671325 138.97603877 -82 143 C-76.58941263 138.48430684 -71.56118559 133.70399065 -66.58618164 128.71557617 C-65.7756131 127.90675995 -64.96504456 127.09794373 -64.12991333 126.26461792 C-61.47081874 123.6098993 -58.81536835 120.95157015 -56.16015625 118.29296875 C-54.30942663 116.44291299 -52.4585486 114.59300568 -50.60752869 112.74324036 C-46.74005349 108.87757792 -42.87467754 105.00982582 -39.01049805 101.14086914 C-34.53895525 96.66386231 -30.06379024 92.19050041 -25.58677202 87.71896952 C-21.27509176 83.41236272 -16.96621409 79.10296343 -12.65853691 74.79235268 C-10.82554066 72.95868731 -8.9917957 71.12577008 -7.15730476 69.29360008 C-4.60513592 66.74395393 -2.05616584 64.19115362 0.49194336 61.63745117 C1.25705734 60.87436142 2.02217133 60.11127167 2.81047058 59.32505798 C3.49872925 58.63397949 4.18698792 57.942901 4.89610291 57.23088074 C5.49908172 56.6275249 6.10206053 56.02416906 6.72331142 55.40252972 C8.11219205 54.19284636 8.11219205 54.19284636 8 53 C1.90721595 52.97355367 -4.16283794 53.19787611 -10.25 53.4375 Z M-219 124 C-217.246875 128.785 -215.49375 133.57 -213.6875 138.5 C-213.14053467 139.99337891 -212.59356934 141.48675781 -212.0300293 143.02539062 C-209.70871476 149.35864871 -207.38269761 155.68951076 -205 162 C-200.81070534 157.12291069 -197.53522735 151.68029833 -194.125 146.25 C-192.92024062 144.33793028 -191.71452114 142.42646514 -190.5078125 140.515625 C-189.92547852 139.59201172 -189.34314453 138.66839844 -188.74316406 137.71679688 C-186.58474655 134.35280946 -184.33895336 131.05324969 -182.06201172 127.76855469 C-180.828397 126.05805233 -180.828397 126.05805233 -181 124 C-193.54 124 -206.08 124 -219 124 Z M-177 125 C-178.14545068 126.43236752 -178.14545068 126.43236752 -179.21484375 128.33984375 C-179.86549805 129.42797363 -179.86549805 129.42797363 -180.52929688 130.53808594 C-180.99400391 131.32989258 -181.45871094 132.12169922 -181.9375 132.9375 C-182.92372498 134.58846966 -183.91206352 136.23817831 -184.90234375 137.88671875 C-185.66587158 139.15781494 -185.66587158 139.15781494 -186.44482422 140.45458984 C-189.31534306 145.15286762 -192.34475015 149.74827238 -195.38256836 154.33959961 C-197.86494334 158.12237683 -200.06344226 161.8975553 -202 166 C-189.92760283 172.6854656 -177.77401921 179.1933291 -165.5 185.5 C-156.8182259 189.9615125 -148.17812193 194.48219158 -139.625 199.1875 C-131.87214303 203.45026906 -124.08399403 207.6379759 -116.25 211.75 C-115.25436035 212.2761792 -114.2587207 212.8023584 -113.23291016 213.34448242 C-112.31558105 213.82377197 -111.39825195 214.30306152 -110.453125 214.796875 C-109.64004883 215.22323242 -108.82697266 215.64958984 -107.98925781 216.08886719 C-106.06160854 217.13880806 -106.06160854 217.13880806 -104 217 C-105.69219514 213.08022594 -108.28804678 209.9277619 -110.9375 206.625 C-111.94017827 205.362038 -112.94278042 204.09901555 -113.9453125 202.8359375 C-114.45610352 202.19495117 -114.96689453 201.55396484 -115.49316406 200.89355469 C-117.77837541 198.02186006 -120.04599765 195.1364685 -122.3125 192.25 C-122.75779053 191.68361816 -123.20308105 191.11723633 -123.66186523 190.53369141 C-128.06438295 184.92936141 -132.43569644 179.30086989 -136.80786133 173.67285156 C-140.79143876 168.54729711 -144.79332342 163.43669728 -148.80981445 158.33691406 C-152.00442131 154.27689423 -155.1787569 150.20147674 -158.34667969 146.12060547 C-160.70560853 143.08278067 -163.06909466 140.04851932 -165.43310547 137.01464844 C-166.82572664 135.2240735 -168.21229214 133.42900114 -169.59765625 131.6328125 C-170.30792969 130.72273437 -171.01820313 129.81265625 -171.75 128.875 C-172.34296875 128.10929688 -172.9359375 127.34359375 -173.546875 126.5546875 C-174.02640625 126.04164063 -174.5059375 125.52859375 -175 125 C-175.66 125 -176.32 125 -177 125 Z M-223 127 C-225.26332942 131.21593121 -227.52358378 135.43349063 -229.78100586 139.65258789 C-230.54936808 141.08761017 -231.31856827 142.52218409 -232.08862305 143.95629883 C-233.19540551 146.01786849 -234.29916326 148.08103236 -235.40234375 150.14453125 C-235.74716293 150.78526077 -236.09198212 151.4259903 -236.44725037 152.08613586 C-237.84392471 154.70452969 -239.05930024 157.17790072 -240 160 C-230.13324315 159.35299955 -220.6321935 157.12620288 -211 155 C-212.37839421 151.16973488 -213.76609818 147.34298966 -215.16259766 143.51928711 C-215.63653889 142.21749169 -216.10790579 140.91475609 -216.57666016 139.61108398 C-217.25008742 137.73958264 -217.93349272 135.87168113 -218.6171875 134.00390625 C-219.02565918 132.87799072 -219.43413086 131.7520752 -219.85498047 130.59204102 C-220.72816968 127.87031189 -220.72816968 127.87031189 -223 127 Z M-80 163 C-84.1844988 180.71279323 -88.24787233 198.44822723 -92.15820312 216.22363281 C-94.34981795 226.17077563 -96.64253034 236.09085982 -99 246 C-98.32759277 246.38631592 -97.65518555 246.77263184 -96.96240234 247.1706543 C-84.90258872 254.10335823 -72.85271124 261.05103387 -60.875 268.125 C-59.99505371 268.64408936 -59.11510742 269.16317871 -58.20849609 269.69799805 C-56.95673584 270.4391687 -56.95673584 270.4391687 -55.6796875 271.1953125 C-54.89303711 271.66098633 -54.10638672 272.12666016 -53.29589844 272.60644531 C-50.34556904 274.39722373 -47.46433426 276.2881747 -44.59814453 278.21044922 C-44.07075684 278.47100098 -43.54336914 278.73155273 -43 279 C-42.34 278.67 -41.68 278.34 -41 278 C-41.19441681 277.41897018 -41.38883362 276.83794037 -41.58914185 276.23930359 C-50.62315137 249.23545297 -59.63395279 222.22553169 -68.40673828 195.13549805 C-68.93255072 193.5121855 -69.45842791 191.88889393 -69.984375 190.265625 C-70.35699966 189.11547661 -70.35699966 189.11547661 -70.7371521 187.9420929 C-73.44168066 179.61150038 -76.21687502 171.30460617 -79 163 C-79.33 163 -79.66 163 -80 163 Z M-201 171 C-200.125639 173.7793262 -199.22707389 176.54641711 -198.3125 179.3125 C-198.06822266 180.09818359 -197.82394531 180.88386719 -197.57226562 181.69335938 C-197.31767578 182.45068359 -197.06308594 183.20800781 -196.80078125 183.98828125 C-196.57559814 184.68477783 -196.35041504 185.38127441 -196.1184082 186.09887695 C-193.22346606 191.01983623 -186.61224947 192.32963977 -181.4921875 194.0390625 C-180.66128098 194.32163406 -179.83037445 194.60420563 -178.97428894 194.89533997 C-176.27647646 195.81111002 -173.57590418 196.71839299 -170.875 197.625 C-169.0212812 198.25102293 -167.1676847 198.87740813 -165.31420898 199.50415039 C-161.61502483 200.75392151 -157.91463132 202.00002081 -154.21337891 203.24365234 C-150.2587569 204.57361889 -146.30872795 205.91627669 -142.36199951 207.26947021 C-139.26405083 208.33101826 -136.16304013 209.38354951 -133.0625 210.4375 C-131.39646729 211.01201904 -131.39646729 211.01201904 -129.69677734 211.59814453 C-128.69469238 211.93571777 -127.69260742 212.27329102 -126.66015625 212.62109375 C-125.80043213 212.9142749 -124.94070801 213.20745605 -124.05493164 213.50952148 C-121.95244073 214.24398975 -121.95244073 214.24398975 -120 213 C-134.59848517 204.86457605 -149.39022724 197.14465036 -164.26538086 189.53173828 C-165.75637163 188.76860153 -167.2473388 188.00541866 -168.73828125 187.2421875 C-169.45892258 186.87332428 -170.1795639 186.50446106 -170.92204285 186.12442017 C-177.5082274 182.74865741 -184.06128747 179.31151318 -190.5847168 175.81591797 C-193.99376747 174.00014204 -197.37615213 172.3432023 -201 171 Z " fill="#221D1E" transform="translate(353,113)"/>
</svg>
